{
	"asset": {
		"generator": "Unity 5.6.0f3",
		"extras": {
			"exporterVersion" : "2.1.1"
		},
		"version": "2.0"
	},
	"accessors": [
		{
			"bufferView": 2,
			"byteOffset": 0,
			"componentType": 5126,
			"count": 3118,
			"max": [ 1.131835, 0.93155, 0.400085 ],
			"min": [ -1.123929, 0.008957, -0.412032 ],
			"type": "VEC3"
		},
		{
			"bufferView": 2,
			"byteOffset": 37416,
			"componentType": 5126,
			"count": 3118,
			"max": [ 1, 1, 1 ],
			"min": [ -1, -1, -1 ],
			"type": "VEC3"
		},
		{
			"bufferView": 1,
			"byteOffset": 0,
			"componentType": 5126,
			"count": 3118,
			"max": [ 0.9936, 0.9783 ],
			"min": [ 0.0064, 0.0064 ],
			"type": "VEC2"
		},
		{
			"bufferView": 3,
			"byteOffset": 0,
			"componentType": 5126,
			"count": 3118,
			"max": [ 0.9999999, 1, 1, 1 ],
			"min": [ -0.9997863, -1, -0.999997, 1 ],
			"type": "VEC4"
		},
		{
			"bufferView": 0,
			"byteOffset": 0,
			"componentType": 5123,
			"count": 13848,
			"max": [ 3117 ],
			"min": [ 0 ],
			"type": "SCALAR"
		}
	],
	"buffers": [
		{
			"byteLength": 177360,
			"uri": "Unity2Skfb.bin"
		}
	],
	"bufferViews": [
		{
			"buffer": 0,
			"byteLength": 27696,
			"byteOffset": 149664,
			"target": 34963
		},
		{
			"buffer": 0,
			"byteLength": 24944,
			"byteOffset": 0,
			"byteStride": 8,
			"target": 34962
		},
		{
			"buffer": 0,
			"byteLength": 74832,
			"byteOffset": 24944,
			"byteStride": 12,
			"target": 34962
		},
		{
			"buffer": 0,
			"byteLength": 49888,
			"byteOffset": 99776,
			"byteStride": 16,
			"target": 34962
		}
	],
	"images": [
		{
			"uri": "Assets/Apartment 01/Living Room/Assets/Textures/Couch_04/couch_Couch_AlbedoTransparency.jpg"
		},
		{
			"uri": "Assets/Apartment 01/Living Room/Assets/Textures/Couch_04/couch_Couch_MetallicSmoothness_converted_metalRoughness.jpg"
		},
		{
			"uri": "Assets/Apartment 01/Living Room/Assets/Textures/Couch_04/couch_Couch_Normal.jpg"
		},
		{
			"uri": "Assets/Apartment 01/Living Room/Assets/Textures/Couch_04/couch_Couch_AmbientOcclusion.jpg"
		}
	],
	"materials": [
		{
			"pbrMetallicRoughness": {
				"baseColorTexture" : {
					"index" : 0,
					"texCoord" : 0
				},
				"baseColorFactor": [1, 1, 1, 1],
				"metallicRoughnessTexture" : {
					"index" : 1,
					"texCoord" : 0
				},
				"metallicFactor": 1,
				"roughnessFactor": 1
			},
			"normalTexture" : {
				"index" : 2,
				"texCoord" : 0,
				"scale" : 1
			},
			"emissiveFactor": [0, 0, 0],
			"occlusionTexture" : {
				"index" : 3,
				"texCoord" : 0,
				"strength" : 1
			},
			"doubleSided": false,
			"name": "Couch_04_01"
		}
	],
	"meshes": [
		{
			"name": "mesh_default_9550Couch_03",
			"primitives": [
				{
					"attributes": {
						"POSITION": 0,
						"NORMAL": 1,
						"TEXCOORD_0": 2,
						"TANGENT": 3
					},
					"indices": 4,
					"material": 0,
					"mode": 4
				}
			]
		}
	],
	"nodes": [
		{
			"name": "UnityGlTF_correctionMatrix",
			"children": [
				1
			],
			"matrix": [-1, 0, -8.742278E-08, 0, 0, 1, 0, 0, 8.742278E-08, 0, -1, 0, 0, 0, 0, 1]
		},
		{
			"name": "node_Couch_03_9976",
			"mesh": 0,
			"matrix": [1, 0, 0, 0, 0, 1, 0, 0, 0, 0, 1, 0, 5.209, 0, 0.064, 1]
		}
	],
	"samplers": [
		{
			"magFilter": 9729,
			"minFilter": 9985,
			"wrapS": 10497,
			"wrapT": 10497
		}
	],
	"scenes": [
		{
			"name":"defaultScene",
			"nodes": [
				0
			]
		}
	],
	"scene": 0,
	"textures": [
		{
			"sampler": 0,
			"source": 0
		},
		{
			"sampler": 0,
			"source": 1
		},
		{
			"sampler": 0,
			"source": 2
		},
		{
			"sampler": 0,
			"source": 3
		}
	]
}